<svg width="512" height="512" xmlns="http://www.w3.org/2000/svg" xml:space="preserve" version="1.1">
 <g id="Layer_1">
  <title>Layer 1</title>
  <rect transform="rotate(-20 206 257)" rx="20" id="svg_44" height="356" width="256" y="78.99998" x="77.99998" stroke-width="0" stroke="#000" fill="#2e8b57"/>
  <path transform="rotate(-20 66.8207 160.994)" id="svg_45" stroke="null" fill="#2e8b57" d="m67.53589,139.05508c-0.25135,-0.31237 -0.20769,-0.28354 -0.20769,-0.28354c-0.12861,-0.17622 -0.31356,-0.27792 -0.50786,-0.27792c-0.19422,0 -0.37846,0.1017 -0.50706,0.27792c0,0 0.04461,-0.02883 -0.2077,0.28354c-6.21062,7.77189 -17.65893,12.17408 -17.65893,23.3613c0,0.57455 0.02274,1.17336 0.06981,1.79635c0.50025,6.56785 4.79291,10.29379 9.43107,10.29379c2.63271,0 5.13428,-1.94647 6.80675,-4.76861c-0.78457,5.45602 -1.79101,11.51084 -2.07359,12.26259c-0.48186,1.2805 0.09588,1.49417 0.38432,1.49417l7.51137,0c0.28844,0 0.86524,-0.21367 0.38424,-1.49417c-0.2817,-0.75175 -1.28989,-6.80657 -2.07263,-12.26259c1.67159,2.82214 4.17308,4.76861 6.80588,4.76861c4.63902,0 8.93074,-3.72594 9.43194,-10.29379c0.04699,-0.62299 0.06886,-1.2218 0.06886,-1.79635c0.00016,-11.18722 -11.44816,-15.58941 -17.65878,-23.3613z" class="st0"/>
  <g transform="rotate(-10 206 257)" id="svg_42">
   <rect transform="rotate(-10 206 257)" rx="20" id="svg_40" height="350" width="250" y="81.99998" x="80.99998" stroke-width="0" stroke="#000" fill="#ffffff"/>
   <path transform="rotate(-10 92.5 139.5)" id="svg_41" stroke="null" fill="#2e8b57" d="m93.21523,117.56092c-0.25135,-0.31237 -0.20769,-0.28354 -0.20769,-0.28354c-0.12861,-0.17622 -0.31356,-0.27792 -0.50786,-0.27792c-0.19422,0 -0.37846,0.1017 -0.50706,0.27792c0,0 0.04461,-0.02883 -0.2077,0.28354c-6.21062,7.77189 -17.65893,12.17408 -17.65893,23.3613c0,0.57455 0.02274,1.17336 0.06981,1.79635c0.50025,6.56785 4.79291,10.29379 9.43107,10.29379c2.63271,0 5.13428,-1.94647 6.80675,-4.76861c-0.78457,5.45602 -1.79101,11.51084 -2.07359,12.26259c-0.48186,1.2805 0.09588,1.49417 0.38432,1.49417l7.51137,0c0.28844,0 0.86524,-0.21367 0.38424,-1.49417c-0.2817,-0.75175 -1.28989,-6.80657 -2.07263,-12.26259c1.67159,2.82214 4.17308,4.76861 6.80588,4.76861c4.63902,0 8.93074,-3.72594 9.43194,-10.29379c0.04699,-0.62299 0.06886,-1.2218 0.06886,-1.79635c0.00016,-11.18722 -11.44816,-15.58941 -17.65878,-23.3613z" class="st0"/>
  </g>
  <rect transform="rotate(-10 232 256)" rx="22" id="svg_43" height="356" width="256" y="77.99998" x="103.99998" stroke-width="0" stroke="#000" fill="#2e8b57"/>
  <rect transform="rotate(-10 232 256)" rx="20" id="svg_28" height="350" width="250" y="80.99998" x="106.99998" stroke-width="0" stroke="#000" fill="#ffffff"/>
  <path transform="rotate(-10 118.5 138.5)" id="svg_5" stroke="null" fill="#2e8b57" d="m119.21523,116.56092c-0.25135,-0.31237 -0.20769,-0.28354 -0.20769,-0.28354c-0.12861,-0.17622 -0.31356,-0.27792 -0.50786,-0.27792c-0.19422,0 -0.37846,0.1017 -0.50706,0.27792c0,0 0.04461,-0.02883 -0.2077,0.28354c-6.21062,7.77189 -17.65893,12.17408 -17.65893,23.3613c0,0.57455 0.02274,1.17336 0.06981,1.79635c0.50025,6.56785 4.79291,10.29379 9.43107,10.29379c2.63271,0 5.13428,-1.94647 6.80675,-4.76861c-0.78457,5.45602 -1.79101,11.51084 -2.07359,12.26259c-0.48186,1.2805 0.09588,1.49417 0.38432,1.49417l7.51137,0c0.28844,0 0.86524,-0.21367 0.38424,-1.49417c-0.2817,-0.75175 -1.28989,-6.80657 -2.07263,-12.26259c1.67159,2.82214 4.17308,4.76861 6.80588,4.76861c4.63902,0 8.93074,-3.72594 9.43194,-10.29379c0.04699,-0.62299 0.06886,-1.2218 0.06886,-1.79635c0.00016,-11.18722 -11.44816,-15.58941 -17.65878,-23.3613z" class="st0"/>
  <rect rx="22" id="svg_31" height="356" width="256" y="78" x="128" stroke="null" fill="#2e8b57"/>
  <rect rx="20" stroke-width="0" id="svg_2" height="350" width="250" y="81" x="131" stroke="#000" fill="#ffffff"/>
  <path transform="rotate(180 345.5 390.5)" stroke="null" fill="#2e8b57" d="m346.21525,368.56093c-0.25135,-0.31237 -0.20769,-0.28354 -0.20769,-0.28354c-0.12861,-0.17622 -0.31356,-0.27792 -0.50786,-0.27792c-0.19422,0 -0.37846,0.10169 -0.50707,0.27792c0,0 0.04461,-0.02883 -0.20769,0.28354c-6.21062,7.77189 -17.65894,12.17408 -17.65894,23.3613c0,0.57455 0.02274,1.17336 0.06981,1.79635c0.50025,6.56785 4.79291,10.29379 9.43107,10.29379c2.63271,0 5.13429,-1.94647 6.80675,-4.76861c-0.78457,5.45601 -1.79101,11.51084 -2.07359,12.26259c-0.48187,1.28051 0.09588,1.49417 0.38432,1.49417l7.51137,0c0.28844,0 0.86524,-0.21367 0.38424,-1.49417c-0.2817,-0.75174 -1.28989,-6.80657 -2.07264,-12.26259c1.6716,2.82214 4.17309,4.76861 6.80588,4.76861c4.63903,0 8.93074,-3.72594 9.43194,-10.29379c0.04699,-0.62298 0.06886,-1.22179 0.06886,-1.79635c0.00016,-11.18722 -11.44816,-15.5894 -17.65878,-23.3613z" class="st0"/>
  <rect id="svg_25" height="43" width="137" y="185.66666" x="201.99999" stroke-width="0" stroke="null" fill="#ffffff"/>
  <g stroke="null">
   <g stroke="null">
    <g stroke="null">
     <path stroke="null" fill="#2e8b57" d="m338.32002,310.4194c0,-31.96164 -16.40357,-43.19146 -21.96285,-46.07907c-0.2854,-22.34583 -5.95715,-39.14339 -16.8727,-49.94406c-12.22716,-12.10197 -26.40276,-11.95782 -27.01999,-11.95518c-8.93997,0 -13.86536,3.31148 -16.46111,6.15753c-2.59313,-2.84605 -7.5074,-6.15753 -16.41468,-6.15753c-0.62017,-0.01649 -14.83402,-0.15767 -27.07491,11.95518c-10.91588,10.80034 -16.58762,27.59789 -16.87303,49.94406c-5.55928,2.88761 -21.96024,14.10918 -21.96024,46.0098c-0.04381,1.77466 -0.73263,43.615 29.19597,55.25714l0.27167,0.08873c0.1154,0.03332 0.83692,0.21309 2.04162,0.21309c3.97895,0 13.20694,-1.99336 22.96454,-18.04905l0.48025,-1.61138l0,16.77546c0,1.52825 1.22661,2.76853 2.74384,2.76853c1.51757,0 2.74384,-1.24028 2.74384,-2.76853l0,-14.02045c0.30992,0.21045 0.62017,0.41794 0.93009,0.62839l2.55194,1.73046c1.03993,0.71151 2.05241,1.46756 3.06488,2.22327c4.39316,3.27817 8.93703,6.66981 15.33062,6.66981c6.39064,0 10.93484,-3.39164 15.328,-6.66981c1.01247,-0.75571 2.02495,-1.51176 3.06488,-2.22327l2.57385,-1.74431l0.00262,-0.00264c0.35406,-0.23816 0.70255,-0.47632 1.05628,-0.71151l0,14.1204c0,1.52825 1.22661,2.76853 2.74384,2.76853c1.51757,0 2.74384,-1.24028 2.74384,-2.76853l0,-15.95872l0.03008,0.10523l0.29913,0.68941c9.76054,16.0557 18.98559,18.04905 22.96454,18.04905c1.2047,0 1.92622,-0.1801 2.04162,-0.21309l0.27167,-0.08873c29.92958,-11.64248 29.24076,-53.48282 29.1999,-55.1882zm-44.14834,-22.79181c-1.10859,11.30734 -5.80905,21.6429 -9.5572,28.32095c-0.51032,0.91372 -0.97128,1.84954 -1.39105,2.80745c-0.13436,0.31007 -0.23865,0.63399 -0.36223,0.94967c-0.26056,0.65346 -0.527,1.30394 -0.7408,1.97422c-0.12881,0.39023 -0.21936,0.78903 -0.32921,1.18486c-0.17556,0.60925 -0.35111,1.21554 -0.48842,1.83568c-0.09611,0.43179 -0.15627,0.86952 -0.23604,1.30691c-0.10429,0.59243 -0.21675,1.17959 -0.29096,1.77763c-0.05754,0.46247 -0.07944,0.92757 -0.11802,1.39268c-0.04675,0.57594 -0.09611,1.15452 -0.11246,1.73606c-0.01373,0.4816 0,0.96089 0.00817,1.43985c0.00817,0.57033 0.01635,1.13802 0.05198,1.70539c0.03563,0.49017 0.09317,0.98002 0.1481,1.47019c0.06048,0.55912 0.12358,1.11592 0.21413,1.66943c0.07944,0.49545 0.18667,0.98299 0.28802,1.4758c0.07127,0.34603 0.12063,0.69766 0.20302,1.04368c-1.00986,0.76957 -2.05535,1.51176 -3.10346,2.24537c-1.47637,1.03841 -2.96615,2.05702 -4.46181,3.06772l-2.58202,1.74992c-1.10041,0.75307 -2.17337,1.55332 -3.24599,2.35323c-3.8472,2.87112 -7.4855,5.58456 -12.06533,5.58456c-4.58245,0 -8.22107,-2.71344 -12.06795,-5.58456c-1.07295,-0.80024 -2.14591,-1.60016 -3.24894,-2.35323l-2.5794,-1.74992c-1.4816,-1.00212 -2.95798,-2.01018 -4.42062,-3.04001c-1.06184,-0.74483 -2.12106,-1.49493 -3.14465,-2.27308c0.08238,-0.34339 0.12881,-0.69205 0.2004,-1.03544c0.1069,-0.49545 0.21119,-0.9886 0.29096,-1.48405c0.09056,-0.55384 0.15365,-1.11032 0.21413,-1.66679c0.05754,-0.49017 0.1154,-0.98002 0.1481,-1.47283c0.03563,-0.56769 0.04381,-1.13505 0.05198,-1.70539c0.00817,-0.47896 0.0219,-0.95792 0.00817,-1.43985c-0.01635,-0.58155 -0.06571,-1.16012 -0.11246,-1.73606c-0.03563,-0.46511 -0.06048,-0.93021 -0.11802,-1.39268c-0.07421,-0.59804 -0.18667,-1.18783 -0.29096,-1.77763c-0.07944,-0.4374 -0.13992,-0.87479 -0.23604,-1.30691c-0.13731,-0.62014 -0.31286,-1.22643 -0.48842,-1.83568c-0.10985,-0.39583 -0.2004,-0.79464 -0.32921,-1.18486c-0.21413,-0.66731 -0.4773,-1.3178 -0.73819,-1.96862c-0.12358,-0.31568 -0.23048,-0.64224 -0.36484,-0.95528c-0.41977,-0.95528 -0.88072,-1.89374 -1.39105,-2.80482c-3.74814,-6.68069 -8.44861,-17.01626 -9.5572,-28.32359c-0.04937,-0.51228 -0.02746,-1.02158 0.06048,-1.52264c0.26611,-1.4923 1.12493,-2.86551 2.42837,-3.78484c0.45017,-0.31832 0.95755,-0.6838 1.46264,-1.04665c0.10167,-0.07488 0.19223,-0.13854 0.29619,-0.21309c0.36484,-0.2629 0.75748,-0.55087 1.14161,-0.8362c0.33215,-0.2408 0.65842,-0.47896 1.0043,-0.73361c0.34588,-0.26026 0.71073,-0.53174 1.07295,-0.80288c0.42794,-0.32129 0.85882,-0.64521 1.30343,-0.98299c0.34294,-0.2629 0.69144,-0.52877 1.04549,-0.80288c0.49398,-0.38495 0.99874,-0.77518 1.51201,-1.17959c0.34032,-0.26587 0.68065,-0.53438 1.0262,-0.80849c0.55707,-0.443 1.12232,-0.89689 1.69312,-1.36233c0.32365,-0.2629 0.64207,-0.52052 0.97128,-0.792c0.64469,-0.53174 1.30082,-1.08261 1.95924,-1.63644c0.26056,-0.22134 0.51588,-0.43476 0.77938,-0.65906c1.86312,-1.59488 3.74291,-3.26695 5.5923,-5.00862c0.18929,-0.17153 0.36779,-0.35163 0.55152,-0.52613c0.72446,-0.68677 1.44335,-1.38146 2.15146,-2.0877c0.27723,-0.27412 0.5489,-0.55384 0.82319,-0.83323c0.60644,-0.61453 1.2047,-1.23203 1.79447,-1.85778c0.30175,-0.32129 0.59532,-0.64521 0.89445,-0.96617c0.54334,-0.5954 1.07557,-1.18783 1.59962,-1.78851c0.29913,-0.34339 0.59532,-0.68677 0.88628,-1.0328c0.50477,-0.59804 0.98501,-1.19608 1.46264,-1.79676c0.27167,-0.34339 0.5489,-0.6838 0.80684,-1.02719c0.48286,-0.62839 0.93303,-1.25974 1.37764,-1.89374c0.21969,-0.31271 0.45279,-0.62575 0.66136,-0.93846c0.52405,-0.77518 1.0043,-1.54771 1.46264,-2.32025c0.09873,-0.16625 0.21413,-0.33217 0.30731,-0.49842c0.01373,-0.02507 0.03302,-0.04981 0.04675,-0.07488c0.01112,0.02507 0.03008,0.04981 0.04381,0.07488c0.09317,0.16625 0.20858,0.33217 0.30731,0.49842c0.45834,0.77254 0.93859,1.54507 1.46264,2.32025c0.20858,0.31271 0.44167,0.62575 0.66136,0.93846c0.44461,0.63399 0.89445,1.26535 1.37764,1.89374c0.26056,0.34339 0.53517,0.6838 0.80684,1.02719c0.4773,0.60068 0.95755,1.19872 1.46264,1.79676c0.29096,0.34603 0.58715,0.68677 0.88628,1.0328c0.52405,0.60068 1.05661,1.19608 1.60256,1.79148c0.29619,0.32129 0.59009,0.64224 0.8889,0.96056c0.59271,0.62839 1.19653,1.2515 1.8082,1.869c0.26906,0.27412 0.53517,0.55087 0.80946,0.82235c0.7189,0.71712 1.45153,1.42302 2.18416,2.12068c0.17294,0.16328 0.34032,0.32953 0.51327,0.49017c1.85756,1.74695 3.74814,3.43023 5.61977,5.03072c0.22492,0.19099 0.44723,0.37637 0.67215,0.56472c0.69961,0.59243 1.3966,1.17662 2.08543,1.74431c0.2854,0.23519 0.56525,0.4595 0.84509,0.68941c0.62278,0.50403 1.23478,0.99948 1.8386,1.48108c0.29913,0.23519 0.59009,0.46511 0.88072,0.69502c0.57898,0.45686 1.14684,0.89689 1.70685,1.32637c0.2854,0.22134 0.56786,0.4374 0.84509,0.65049c0.54596,0.4153 1.07295,0.81113 1.58883,1.19608c0.2635,0.19924 0.527,0.39583 0.77938,0.58419c0.527,0.39056 1.02359,0.75307 1.50907,1.11032c0.20858,0.14943 0.42794,0.31271 0.63096,0.45686c0.66136,0.4816 1.29232,0.93318 1.86868,1.3399c1.73333,1.22709 2.68533,3.25937 2.48492,5.30814z"/>
    </g>
   </g>
  </g>
  <rect id="svg_27" height="29" width="147" y="195.66666" x="186.99999" stroke-width="0" stroke="#000" fill="#ffffff"/>
  <g stroke="null">
   <g stroke="null">
    <g stroke="null">
     <path stroke="null" fill="#2e8b57" d="m313.70557,194.32136c0,-2.24265 -1.62881,-4.1375 -3.88307,-4.85067l0,-29.6l0,-5.16759l1.94142,0c1.07366,0 1.94142,-0.77171 1.94142,-1.72246s-0.86776,-1.72246 -1.94142,-1.72246l-1.94142,0l0,-3.44513c0,-0.95076 -0.86776,-1.72246 -1.94142,-1.72246s-1.94142,0.77171 -1.94142,1.72246l0,3.44513l-1.94142,0c-1.07366,0 -1.94142,0.77171 -1.94142,1.72246s0.86776,1.72246 1.94142,1.72246l1.94142,0l0,4.89024l-9.84725,26.21179l-11.50928,-26.25641l0,-4.84563l1.94142,0c1.07366,0 1.94142,-0.77171 1.94142,-1.72246s-0.86776,-1.72246 -1.94142,-1.72246l-1.94142,0l0,-3.44513c0,-0.95076 -0.86776,-1.72246 -1.94142,-1.72246s-1.94142,0.77171 -1.94142,1.72246l0,3.44513l-1.94165,0c-1.07366,0 -1.94142,0.77171 -1.94142,1.72246s0.86776,1.72246 1.94142,1.72246l1.94142,0l0,4.84542l-11.64897,26.57696l-11.64897,-26.57696l0,-4.84542l1.94142,0c1.07366,0 1.94142,-0.77171 1.94142,-1.72246s-0.86776,-1.72246 -1.94142,-1.72246l-1.94142,0l0,-3.44513c0,-0.95076 -0.86776,-1.72246 -1.94142,-1.72246s-1.94142,0.77171 -1.94142,1.72246l0,3.44513l-1.94142,0c-1.07366,0 -1.94142,0.77171 -1.94142,1.72246s0.86776,1.72246 1.94142,1.72246l1.94142,0l0,4.84542l-11.64897,26.57696l-11.64897,-26.57696l0,-4.84542l1.94142,0c1.07366,0 1.94142,-0.77171 1.94142,-1.72246s-0.86776,-1.72246 -1.94142,-1.72246l-1.94142,0l0,-3.44513c0,-0.95076 -0.86776,-1.72246 -1.94142,-1.72246s-1.94165,0.77171 -1.94165,1.72246l0,3.44513l-1.94142,0c-1.07366,0 -1.94142,0.77171 -1.94142,1.72246s0.86776,1.72246 1.94142,1.72246l1.94142,0l0,4.84542l-11.50928,26.25661l-9.84725,-26.21179l0,-4.89024l1.94142,0c1.07366,0 1.94142,-0.77171 1.94142,-1.72246s-0.86776,-1.72246 -1.94142,-1.72246l-1.94142,0l0,-3.44513c0,-0.95076 -0.86776,-1.72246 -1.94142,-1.72246s-1.94142,0.77171 -1.94142,1.72246l0,3.44513l-1.94165,0c-1.07366,0 -1.94142,0.77171 -1.94142,1.72246s0.86776,1.72246 1.94142,1.72246l1.94142,0l0,5.16759l0,29.6c-2.25403,0.71317 -3.88284,2.60802 -3.88284,4.85067c0,2.84904 2.61328,5.16759 5.82449,5.16759l0,17.22523c-3.2112,0 -5.82449,2.31855 -5.82449,5.16759s2.61328,5.16759 5.82449,5.16759l104.84076,0c3.2112,0 5.82449,-2.31855 5.82449,-5.16759s-2.61328,-5.16759 -5.82449,-5.16759l0,-17.22523c3.2112,0 5.82449,-2.31855 5.82449,-5.16759zm-7.76591,-23.83632l0,18.66873l-7.01259,0l7.01259,-18.66873zm-25.23959,6.61108c0,-0.95076 0.86776,-1.72246 1.94142,-1.72246s1.94142,0.77171 1.94142,1.72246l0,6.89005c0,0.95076 -0.86776,1.72246 -1.94142,1.72246s-1.94142,-0.77171 -1.94142,-1.72246l0,-6.89005zm-27.18079,0c0,-0.95076 0.86776,-1.72246 1.94142,-1.72246s1.94142,0.77171 1.94142,1.72246l0,6.89005c0,0.95076 -0.86776,1.72246 -1.94142,1.72246s-1.94142,-0.77171 -1.94142,-1.72246l0,-6.89005zm-27.18101,0c0,-0.95076 0.86776,-1.72246 1.94142,-1.72246s1.94142,0.77171 1.94142,1.72246l0,6.89005c0,0.95076 -0.86776,1.72246 -1.94142,1.72246s-1.94142,-0.77171 -1.94142,-1.72246l0,-6.89005zm-21.35653,-6.61108l7.01282,18.66873l-7.01282,0l0,-18.66873zm104.84076,51.39673c0,0.94914 -0.86981,1.72246 -1.94142,1.72246l-104.84076,0c-1.07161,0 -1.94142,-0.77332 -1.94142,-1.72246c0,-0.94914 0.86981,-1.72246 1.94142,-1.72246l104.84076,0c1.07161,0 1.94142,0.77332 1.94142,1.72246zm-99.01628,-13.78011c0,-0.95076 0.86776,-1.72246 1.94142,-1.72246l3.88307,0c1.07366,0 1.94142,0.77171 1.94142,1.72246c0,0.95076 -0.86776,1.72246 -1.94142,1.72246l-3.88284,0c-1.07366,0 -1.94165,-0.77171 -1.94165,-1.72246zm11.64897,0c0,-0.95076 0.86981,-1.72246 1.94142,-1.72246s1.94142,0.77171 1.94142,1.72246c0,0.95076 -0.86981,1.72246 -1.94142,1.72246s-1.94142,-0.77171 -1.94142,-1.72246zm7.76613,0c0,-0.95076 0.86776,-1.72246 1.94142,-1.72246l15.53204,0c1.07366,0 1.94142,0.77171 1.94142,1.72246c0,0.95076 -0.86776,1.72246 -1.94142,1.72246l-15.53204,0c-1.07366,0 -1.94142,-0.77171 -1.94142,-1.72246zm23.29795,0c0,-0.95076 0.86981,-1.72246 1.94142,-1.72246s1.94142,0.77171 1.94142,1.72246c0,0.95076 -0.86981,1.72246 -1.94142,1.72246s-1.94142,-0.77171 -1.94142,-1.72246zm7.76591,0c0,-0.95076 0.86776,-1.72246 1.94142,-1.72246l15.53204,0c1.07366,0 1.94142,0.77171 1.94142,1.72246c0,0.95076 -0.86776,1.72246 -1.94142,1.72246l-15.53204,0c-1.07366,0 -1.94142,-0.77171 -1.94142,-1.72246zm23.29795,0c0,-0.95076 0.86981,-1.72246 1.94142,-1.72246c1.07161,0 1.94142,0.77171 1.94142,1.72246c0,0.95076 -0.86981,1.72246 -1.94142,1.72246c-1.07161,0 -1.94142,-0.77171 -1.94142,-1.72246zm7.76591,0c0,-0.95076 0.86776,-1.72246 1.94142,-1.72246l3.88307,0c1.07366,0 1.94142,0.77171 1.94142,1.72246c0,0.95076 -0.86776,1.72246 -1.94142,1.72246l-3.88307,0c-1.07343,0 -1.94142,-0.77171 -1.94142,-1.72246zm-89.30872,-12.05785c-1.07161,0 -1.94142,-0.77332 -1.94142,-1.72246c0,-0.94914 0.86981,-1.72246 1.94142,-1.72246l11.64897,0l27.18101,0l27.18101,0l27.18079,0l11.64897,0c1.07161,0 1.94142,0.77332 1.94142,1.72246c0,0.94914 -0.86981,1.72246 -1.94142,1.72246l-104.84076,0z"/>
    </g>
   </g>
  </g>
  <path id="svg_29" stroke="null" fill="#2e8b57" d="m168.21525,100.56093c-0.25135,-0.31237 -0.20769,-0.28354 -0.20769,-0.28354c-0.12861,-0.17622 -0.31356,-0.27792 -0.50786,-0.27792c-0.19422,0 -0.37846,0.1017 -0.50706,0.27792c0,0 0.04461,-0.02883 -0.2077,0.28354c-6.21062,7.77189 -17.65893,12.17408 -17.65893,23.3613c0,0.57455 0.02274,1.17336 0.06981,1.79635c0.50025,6.56785 4.79291,10.29379 9.43107,10.29379c2.63271,0 5.13428,-1.94647 6.80675,-4.76861c-0.78457,5.45602 -1.79101,11.51084 -2.07359,12.26259c-0.48186,1.2805 0.09588,1.49417 0.38432,1.49417l7.51137,0c0.28844,0 0.86524,-0.21367 0.38424,-1.49417c-0.2817,-0.75175 -1.28989,-6.80657 -2.07263,-12.26259c1.67159,2.82214 4.17308,4.76861 6.80588,4.76861c4.63902,0 8.93074,-3.72594 9.43194,-10.29379c0.04699,-0.62299 0.06886,-1.2218 0.06886,-1.79635c0.00016,-11.18722 -11.44816,-15.58941 -17.65878,-23.3613z" class="st0"/>
 </g>

</svg>